<?xml version="1.0" standalone="no"?>
<!DOCTYPE svg PUBLIC "-//W3C//DTD SVG 20010904//EN"
 "http://www.w3.org/TR/2001/REC-SVG-20010904/DTD/svg10.dtd">
<svg version="1.0"
    xmlns="http://www.w3.org/2000/svg" width="512.000000pt" height="512.000000pt" viewBox="0 0 512.000000 512.000000" preserveAspectRatio="xMidYMid meet">
    <metadata>
Created by potrace 1.14, written by Peter Selinger 2001-2017
    </metadata>
    <g transform="translate(0.000000,512.000000) scale(0.100000,-0.100000)" fill="#000000" stroke="none">
        <path d="M2148 3853 l-42 -43 -1 -576 c0 -317 2 -579 5 -583 3 -3 42 -6 88 -7
l82 0 0 538 0 538 299 0 298 0 1 -91 c0 -50 3 -93 7 -97 3 -4 42 -7 86 -7 l79
-1 1 30 c1 17 1 82 1 145 l0 113 -41 42 -41 41 -390 0 -391 0 -41 -42z"/>
        <path d="M1076 3450 c-2 -3 -3 -239 -2 -525 l1 -520 57 -1 58 -2 2 221 3 221
168 -1 167 0 0 87 0 88 -147 0 c-82 0 -158 1 -170 1 l-23 1 0 215 c0 118 -3
216 -7 216 -25 4 -105 4 -107 -1z"/>
        <path d="M1678 3381 l-78 -74 0 -365 0 -364 89 -88 88 -88 517 0 516 1 0 87 0
88 -509 0 c-280 0 -514 2 -519 5 -5 4 -8 154 -8 349 l1 343 130 5 129 5 1 70
c1 108 13 100 -143 101 l-137 0 -77 -75z"/>
        <path d="M2350 3368 l0 -88 518 0 517 0 0 -344 c0 -189 -3 -348 -7 -352 -4 -4
-63 -7 -131 -6 l-124 0 2 -81 c1 -45 3 -85 3 -88 1 -4 60 -6 131 -7 l128 0 85
84 85 85 0 367 1 367 -75 75 -74 75 -529 0 -530 0 0 -87z"/>
        <path d="M3939 3445 c0 -5 -1 -101 -1 -213 -1 -114 -5 -205 -10 -208 -5 -4
-75 -6 -154 -6 l-145 1 3 -87 3 -87 125 -2 c69 -1 137 -2 151 -2 l26 -1 0
-217 -1 -218 57 -2 57 -2 0 528 0 527 -55 0 c-30 -1 -55 -5 -56 -11z"/>
        <path d="M904 2926 l0 -354 58 0 58 1 0 353 0 354 -58 0 -57 0 -1 -354z"/>
        <path d="M4109 3268 c0 -7 -1 -167 -2 -355 l-2 -343 60 0 60 0 -2 282 c-1 156
-3 316 -3 356 l0 72 -55 0 c-37 0 -55 -4 -56 -12z"/>
        <path d="M735 3147 c-3 -7 -3 -106 -2 -222 l2 -210 55 0 55 0 2 221 1 221 -54
1 c-34 0 -57 -4 -59 -11z"/>
        <path d="M4279 3121 c-3 -172 0 -393 5 -398 7 -8 95 -8 102 0 7 6 6 416 -1
426 -2 5 -27 8 -55 8 l-50 0 -1 -36z"/>
        <path d="M2500 2930 l0 -88 163 0 c89 -1 174 -1 188 -1 l27 -1 -2 -346 -1
-346 -87 1 c-49 0 -182 0 -298 1 l-209 0 -3 92 -3 92 -82 1 c-69 1 -83 -1 -84
-14 -1 -9 -2 -68 -3 -131 l-1 -115 53 -52 53 -52 373 0 374 0 47 46 48 46 -1
461 c0 254 -1 469 -1 478 -1 15 -26 16 -276 16 l-275 0 0 -88z"/>
        <path d="M96 1676 c-24 -5 -46 -20 -63 -42 -24 -32 -25 -42 -25 -135 0 -122
11 -139 91 -147 l51 -5 0 104 c0 57 4 110 9 117 6 11 45 14 165 14 140 0 159
-2 191 -21 l35 -20 0 25 c0 38 -27 82 -62 100 -25 13 -65 17 -194 18 -89 0
-179 -3 -198 -8z"/>
        <path d="M637 1682 c-15 -3 -17 -27 -17 -233 l0 -229 70 0 c49 0 70 4 71 13 0
6 1 83 2 170 2 157 2 159 28 181 l26 22 -34 39 c-29 34 -38 38 -81 39 -27 1
-56 0 -65 -2z"/>
        <path d="M1119 1682 c-8 -2 -34 -27 -58 -55 -24 -29 -64 -73 -88 -99 l-44 -48
-27 33 c-69 83 -107 77 -110 -18 -2 -36 4 -46 56 -101 78 -82 92 -81 182 16
l69 75 1 -132 0 -133 70 0 c49 0 70 4 71 13 5 84 2 440 -5 444 -10 6 -96 10
-117 5z"/>
        <path d="M1319 1680 c-8 -6 -11 -130 -3 -130 3 0 15 7 28 15 19 13 60 16 204
17 156 1 185 3 211 19 35 21 70 78 49 80 -65 4 -482 3 -489 -1z"/>
        <path d="M1990 1682 c-64 -8 -101 -40 -114 -100 -9 -37 -9 -37 33 -16 25 13
68 16 221 16 157 0 195 3 221 17 32 18 68 66 56 77 -6 7 -367 12 -417 6z"/>
        <path d="M2674 1682 c-12 -2 -26 -13 -32 -25 -41 -82 -192 -401 -197 -417 -6
-19 -2 -20 63 -20 l69 0 83 175 c46 96 92 184 102 195 11 12 33 23 49 27 16 3
29 7 29 9 0 13 -25 54 -34 55 -39 3 -114 4 -132 1z"/>
        <path d="M3399 1679 c-48 -10 -82 -41 -96 -87 -13 -48 -13 -48 29 -26 24 13
68 16 225 16 181 1 197 2 226 22 30 20 61 65 52 75 -7 7 -401 7 -436 0z"/>
        <path d="M3922 1680 c-18 -5 -13 -14 52 -105 80 -113 102 -124 152 -82 l28 25
-53 78 c-30 44 -55 81 -57 82 -5 6 -100 8 -122 2z"/>
        <path d="M4314 1682 c-15 -2 -45 -38 -95 -112 -71 -105 -111 -142 -138 -125
-15 9 -13 -7 4 -29 11 -14 15 -46 15 -108 l0 -88 68 0 68 0 -1 88 -1 87 98
137 c54 75 98 140 98 145 0 8 -73 11 -116 5z"/>
        <path d="M4515 1682 c-20 -3 -21 -9 -20 -230 l0 -227 71 -3 71 -3 1 153 c0 84
1 161 1 171 1 10 13 29 28 43 l27 25 -36 36 c-35 35 -75 45 -143 35z"/>
        <path d="M4999 1682 c-8 -1 -55 -48 -103 -103 l-88 -100 -40 46 c-60 68 -93
62 -99 -20 -3 -43 3 -54 56 -112 77 -85 88 -83 192 30 29 31 53 57 55 57 2 0
3 -57 3 -127 l0 -128 71 -3 71 -3 -1 232 -1 232 -51 1 c-28 1 -57 0 -65 -2z"/>
        <path d="M2775 1556 l-27 -36 21 -45 c11 -25 21 -47 21 -50 0 -3 -19 -5 -43
-5 -41 0 -44 -2 -65 -45 -12 -25 -22 -48 -22 -50 0 -3 42 -5 93 -5 l92 0 22
-50 22 -50 71 0 c38 0 70 3 70 8 -1 4 -40 86 -88 182 -77 156 -90 175 -114
178 -20 2 -32 -5 -53 -32z"/>
        <path d="M409 1515 c-1 -22 0 -69 0 -104 1 -35 -4 -70 -10 -77 -17 -20 -306
-20 -354 0 -33 14 -35 14 -35 -5 0 -33 28 -78 60 -94 45 -23 380 -22 421 2 47
28 61 72 57 175 -3 85 -4 91 -32 113 -16 13 -46 25 -68 27 l-38 4 -1 -41z"/>
        <path d="M1394 1552 c-18 -2 -42 -14 -55 -28 -23 -24 -24 -34 -26 -165 l-3
-140 219 3 c218 3 220 3 246 28 15 14 31 34 35 45 7 19 2 20 -173 25 l-181 5
-1 27 c-1 15 1 31 4 35 3 5 53 8 111 8 l105 0 0 50 0 50 -110 0 -110 0 1 27
c1 29 -11 35 -62 30z"/>
        <path d="M1899 1520 c-29 -28 -30 -32 -28 -120 1 -75 5 -96 23 -123 36 -53 54
-57 251 -57 161 0 183 2 212 20 17 10 37 29 44 42 11 21 20 165 12 198 -3 13
-26 15 -133 15 -70 0 -131 -3 -134 -6 -4 -4 -8 -26 -9 -50 l-2 -44 68 1 67 1
0 -32 c0 -21 -6 -35 -16 -39 -9 -3 -62 -6 -119 -6 -124 0 -124 -1 -123 115 0
124 3 115 -43 115 -32 0 -47 -6 -70 -30z"/>
        <path d="M3338 1535 c-35 -20 -42 -43 -40 -143 2 -97 23 -143 74 -161 18 -6
104 -11 200 -11 191 0 223 8 252 63 14 25 17 52 14 122 l-3 90 -135 0 -135 0
-3 -47 c-2 -27 0 -49 5 -49 4 -1 35 -2 68 -3 56 -1 60 -3 61 -26 1 -14 -3 -31
-8 -37 -14 -17 -219 -18 -236 -1 -8 8 -12 48 -12 115 l0 103 -37 0 c-21 -1
-50 -7 -65 -15z"/>
    </g>
</svg>
